# xmcd
#
# Track frame offsets: 
#        150
#        17129
#        29597
#        42949
#        53812
#        64627
#        78172
#        87251
#        99609
#        112524
#        126514
#        138793
#        148358
#        159461
#        171330
#        185244
#        198509
#        211463
#        221639
#        233865
#        247544
#        269128
#        282169
#        294416
#        309113
#        320338
#        330304
#        341901
#
# Disc length: 4735 seconds
#
# Revision: 4
# Processed by: cddbd v1.5.2PL0 Copyright (c) Steve Scherf et al.
# Submitted via: ExactAudioCopy v0.99pb5
#
DISCID=a0127d1c
DTITLE=Various Artist - Gozalo - Bugalu Tropical Vol.3
DYEAR=2009
DGENRE=Salsa
TTITLE0=La Sonora de Lucho Macedo - Macedo's Boogaloo
TTITLE1=Alfredo Linares y su Sonora - Boogaloo Girl
TTITLE2=Pedro Miguel y sus Maracaibos - Homenaje a Cuba
TTITLE3=Silvestro Montez y sus Guantanameros - El Pajarito
TTITLE4=El Combo de Pepe - Bailando Boogaloo
TTITLE5=Coco Lagos y sus Orates - Volando
TTITLE6=Compay Quinto - El Cumbanchero
TTITLE7=Andres de Colbert y Orquesta - Me Voy a Bailar Pachanga
TTITLE8=El Combo de Pepe (canta Charlie Palomares) - Yiri Yiri Bon
TTITLE9=Al Valdez - Gozalo
TTITLE10=Ñico Estrada y su Sonora - El Que Usted Conoce No Soy Yo
TTITLE11=Carlos Muñoz y su Orquesta - Fiesta en el Barrio
TTITLE12=Tito Chicoma y su Orquesta - Gran Combo Boogaloo
TTITLE13=Mario Allison y su Combo (canta Charlie Palomares) - Le Rompi
TTITLE13=eron El Pito
TTITLE14=Los Hilton's - Shake Baby
TTITLE15=Pedro Miguel y sus Maracaibos - Almendra
TTITLE16=Los Girasoles - El Cerrojo
TTITLE17=Silvestro Montez y sus Guantanameros (canta Melcochita) - Me 
TTITLE17=Voy a Morir
TTITLE18=Compay Quinto - Que Sera (Mi China)
TTITLE19=Coco Lagos y sus Orates - Echate Pa'lla
TTITLE20=Bossa 70 - Me Quedo Con El Shing A Ling
TTITLE21=Carlos Muñoz y su Orquesta - Oye Mi Descarga
TTITLE22=La Sonora de Lucho Macedo - Mulata a Go Go
TTITLE23=Tito Chicoma y su Orquesta - Mr. Trumpet Man
TTITLE24=Mario Allison y su Combo - Louie Louie
TTITLE25=Alfredo Linares y su Sonora - Sabor Tropical
TTITLE26=Al Valdez - Tabaquera
TTITLE27=Ñico Estrada y su Sonora - El Negro Bembon
EXTD=YEAR: 2009
EXTT0=
EXTT1=
EXTT2=
EXTT3=
EXTT4=
EXTT5=
EXTT6=
EXTT7=
EXTT8=
EXTT9=
EXTT10=
EXTT11=
EXTT12=
EXTT13=
EXTT14=
EXTT15=
EXTT16=
EXTT17=
EXTT18=
EXTT19=
EXTT20=
EXTT21=
EXTT22=
EXTT23=
EXTT24=
EXTT25=
EXTT26=
EXTT27=
PLAYORDER=
